<svg xmlns:dc="http://purl.org/dc/elements/1.1/" xmlns:cc="http://creativecommons.org/ns#" xmlns:rdf="http://www.w3.org/1999/02/22-rdf-syntax-ns#" xmlns:svg="http://www.w3.org/2000/svg" xmlns="http://www.w3.org/2000/svg" xmlns:xlink="http://www.w3.org/1999/xlink" id="svg13277" viewBox="290 330 445 105" height="105px" width="445px" version="1.1">
  <metadata id="metadata13283">
    <rdf:rdf>
      <cc:work rdf:about="">
        <dc:format>image/svg+xml</dc:format>
        <dc:type rdf:resource="http://purl.org/dc/dcmitype/StillImage"></dc:type>
      </cc:work>
    </rdf:rdf>
  </metadata>
  <defs id="defs13281"></defs>
  <linearGradient spreadMethod="pad" y2="30%" x2="-10%" y1="120%" x1="30%" id="3d_gradient2-logo-66425659-575b-48e9-9698-f19d69899644">
    <stop id="stop13258" stop-opacity="1" stop-color="#ffffff" offset="0%"></stop>
    <stop id="stop13260" stop-opacity="1" stop-color="#000000" offset="100%"></stop>
  </linearGradient>
  <linearGradient gradientTransform="rotate(-30)" spreadMethod="pad" y2="30%" x2="-10%" y1="120%" x1="30%" id="3d_gradient3-logo-66425659-575b-48e9-9698-f19d69899644">
    <stop id="stop13263" stop-opacity="1" stop-color="#ffffff" offset="0%"></stop>
    <stop id="stop13265" stop-opacity="1" stop-color="#cccccc" offset="50%"></stop>
    <stop id="stop13267" stop-opacity="1" stop-color="#000000" offset="100%"></stop>
  </linearGradient>
  <g id="logo-group">
    <image xlink:href="" id="container" x="272" y="144" width="480" height="480" style="display: none;" transform="translate(0 0)"></image>
    <g id="logo-center" transform="translate(5.684341886080802e-14 0)">
      <image xlink:href="" id="icon_container" style="display: none;" x="0" y="0"></image>
      <g id="slogan" style="font-style:normal;font-weight:300;font-size:32px;line-height:1;font-family:'Fira Sans Condensed';font-variant-ligatures:none;text-align:center;text-anchor:middle" transform="translate(0 0)"></g>
      <g id="title" style="font-style:normal;font-weight:normal;font-size:72px;line-height:1;font-family:'Brandmark Sans 16 Color Shadow';font-variant-ligatures:normal;text-align:center;text-anchor:middle" transform="translate(0 0)">
        <g id="path13286" aria-label="K" transform="translate(0 324.964) translate(299.60605999999996 16.952000000000005) scale(1.67) translate(-392.28144 50.4)"> <path class="c1" d="M124.1,74.8l-16.9,24.7l12.3,25.7H103l-5.3-11.5l-0.6-1.4l-4.7-10.2l-2.1,23.1H75.9l4.5-50.4h14.4l-2,21.9 l7.7-11.3l7.2-10.6C107.7,74.8,124.1,74.8,124.1,74.8z" transform="translate(316.38144 -125.2)" stroke-width="0" stroke-linejoin="miter" stroke-miterlimit="2" fill="#8b5cf6" stroke="#8b5cf6"></path> <linearGradient id="a627fed4-6bed-4458-adb1-c7e4d45174a2" gradientUnits="userSpaceOnUse" x1="92.3248" y1="-496" x2="124.12479" y2="-496" gradientTransform="matrix(1 0 0 -1 0 -396)"> <stop offset="0.09073" style="stop-color:#000000;stop-opacity:0.8"></stop> <stop offset="0.3494" style="stop-color:#000000;stop-opacity:0"></stop> </linearGradient> <path class="highlight" fill="url(#a627fed4-6bed-4458-adb1-c7e4d45174a2)" d="M107.3,99.5l12.3,25.7H103l-5.3-11.5l-0.6-1.4l-4.7-10.2l0.5-5.4l7.7-11.3l7.2-10.6h16.4L107.3,99.5 z" transform="translate(316.38144 -125.2)" stroke-width="0" stroke-linejoin="miter" stroke-miterlimit="2" opacity="0.63"></path> </g>
        <g id="path13288" aria-label="E" transform="translate(0 324.964) translate(383.28870789999996 16.952000000000005) scale(1.67) translate(-439.39081 50.4)"> <path class="c1" d="M98.7,74.8h21.5l-1,10.8H97.7l-0.8,9h14.3l-1,10.8H96l-0.8,9h21.7l-1,10.8H94.2l0,0H79.8l3.5-39.6l0.9-10.8 l0,0L98.7,74.8L98.7,74.8z" transform="translate(359.59081 -125.2)" stroke-width="0" stroke-linejoin="miter" stroke-miterlimit="2" fill="#8b5cf6" stroke="#8b5cf6"></path> <linearGradient id="41f42f5d-fbec-4a9f-9648-80a8ef8af6ac" gradientUnits="userSpaceOnUse" x1="88.75" y1="-481.60001" x2="88.75" y2="-521.20001" gradientTransform="matrix(1 0 0 -1 0 -396)"> <stop offset="0.06138" style="stop-color:#000000;stop-opacity:0.8"></stop> <stop offset="0.2125" style="stop-color:#000000;stop-opacity:0"></stop> </linearGradient> <path class="highlight" fill="url(#41f42f5d-fbec-4a9f-9648-80a8ef8af6ac)" d="M83.3,85.6h14.4l-3.5,39.6H79.8L83.3,85.6z" transform="translate(359.59081 -125.2)" stroke-width="0" stroke-linejoin="miter" stroke-miterlimit="2" opacity="0.63"></path> </g>
        <g id="path13290" aria-label="T" transform="translate(0 324.964) translate(456.88435539999995 16.952000000000005) scale(1.67) translate(-480.46006 50.4)"> <path class="c1" d="M107.7,74.8h14.4l-1,10.8h-14.3l-3.5,39.6H88.8l3.5-39.6H77.9l1-10.8h14.4H107.7z" transform="translate(402.56006 -125.2)" stroke-width="0" stroke-linejoin="miter" stroke-miterlimit="2" fill="#8b5cf6" stroke="#8b5cf6"></path> <linearGradient id="55916da6-72ba-4a79-bd75-f6555daaa36f" gradientUnits="userSpaceOnUse" x1="97.75" y1="-481.60001" x2="97.75" y2="-521.20001" gradientTransform="matrix(1 0 0 -1 0 -396)"> <stop offset="0.06138" style="stop-color:#000000;stop-opacity:0.8"></stop> <stop offset="0.2638" style="stop-color:#000000;stop-opacity:0"></stop> </linearGradient> <path class="highlight" fill="url(#55916da6-72ba-4a79-bd75-f6555daaa36f)" d="M92.3,85.6h14.4l-3.5,39.6H88.8L92.3,85.6z" transform="translate(402.56006 -125.2)" stroke-width="0" stroke-linejoin="miter" stroke-miterlimit="2" opacity="0.63"></path> </g>
        <g id="path13292" aria-label="S" transform="translate(0 324.964) translate(533.1497149999999 15.749600000000008) scale(1.67) translate(-523.12794 51.12)"> <path class="c1" d="M99.6,89.1c0,6.2,19.3,4.9,19.3,19.7c0,16-18.9,17.2-23.2,17.2c-2.3,0-10-0.7-14.8-2.7l1.2-13.8 c4.9,3,9.7,5.3,13.8,5.3c4.2,0,5.7-2,5.7-3.6c0-7.8-18.7-4-18.7-20.2c0-12.8,14.2-16.9,21.6-16.9c7.1,0,10.3,0.8,14.6,1.9 l-1.2,13.8c0,0-7.6-4.5-12.3-4.5C102,85.3,99.6,86.8,99.6,89.1z" transform="translate(442.22794 -125.22)" stroke-width="0" stroke-linejoin="miter" stroke-miterlimit="2" fill="#8b5cf6" stroke="#8b5cf6"></path> <linearGradient id="6b4b4fe8-0718-4d63-8a89-6717968fc00c" gradientUnits="userSpaceOnUse" x1="99.93118" y1="-481.29999" x2="99.93118" y2="-496.14978" gradientTransform="matrix(1 0 0 -1 0 -396)"> <stop offset="0.2228" style="stop-color:#000000;stop-opacity:0.8"></stop> <stop offset="0.5404" style="stop-color:#000000;stop-opacity:0.2925"></stop> <stop offset="0.7684" style="stop-color:#000000;stop-opacity:0"></stop> </linearGradient> <path class="highlight" fill="url(#6b4b4fe8-0718-4d63-8a89-6717968fc00c)" d="M115.7,100.1H86c0,0-9.5-14.8,14.7-14.8h4.9c-3.6,0-6,1.5-6,3.8C99.6,93.7,110.2,94.2,115.7,100.1z" transform="translate(442.22794 -125.22)" stroke-width="0" stroke-linejoin="miter" stroke-miterlimit="2" opacity="0.63"></path> </g>
        <g id="path13294" aria-label="U" transform="translate(0 324.964) translate(609.0054069 16.952000000000005) scale(1.67) translate(-565.55051 50.4)"> <path class="c1" d="M108.6,74.4H123l-2.3,25.6l-0.5,5.5c-0.5,5.4-7.8,20-23.3,20c-11.7,0-20.8-9.7-19.8-21.5l0,0l2.7-29.6h14.4 l-2.9,32.4l0,0c-0.2,2.8,2,7.2,6.5,7.2c5,0,7.6-3.9,7.9-7.2l0.6-6.8L108.6,74.4z" transform="translate(488.525703 -124.8)" stroke-width="0" stroke-linejoin="miter" stroke-miterlimit="2" fill="#8b5cf6" stroke="#8b5cf6"></path> <linearGradient id="47498a1a-2366-4777-a569-ddc10848f7f2" gradientUnits="userSpaceOnUse" x1="116.37312" y1="-493.6019" x2="99.38136" y2="-523.03259" gradientTransform="matrix(1 0 0 -1 0 -396)"> <stop offset="0.3957" style="stop-color:#000000;stop-opacity:0.8"></stop> <stop offset="0.5781" style="stop-color:#000000;stop-opacity:0.2925"></stop> <stop offset="0.7089" style="stop-color:#000000;stop-opacity:0"></stop> </linearGradient> <path class="highlight" fill="url(#47498a1a-2366-4777-a569-ddc10848f7f2)" d="M120.7,100.1l-0.5,5.5c-0.5,5.4-7.8,20-23.3,20l0,0V114c0.3,0,0.6,0.1,0.9,0.1 c5.9,0,17.5,0.9,21.6-8.4C120,104.1,120.5,102.3,120.7,100.1z" transform="translate(488.525703 -124.8)" stroke-width="0" stroke-linejoin="miter" stroke-miterlimit="2" opacity="0.63"></path> </g>
        <g id="path13296" aria-label="I" transform="translate(0 324.964) translate(692.8910599999999 16.952000000000005) scale(1.67) translate(-612.78144 50.4)"> <path class="c1" d="M95.05531,74.79308h14.40307l-4.51369,50.41383H90.54162L95.05531,74.79308z" transform="translate(522.23982 -125.19308)" stroke-width="0" stroke-linejoin="miter" stroke-miterlimit="2" fill="#8b5cf6" stroke="#8b5cf6"></path> </g>
            </g>
      <image xlink:href="" id="icon" style="display: none;" x="0" y="0"></image>
    </g>
  </g>
</svg>